<svg xmlns="http://www.w3.org/2000/svg" version="1.1" xmlns:xlink="http://www.w3.org/1999/xlink" xmlns:svgjs="http://svgjs.dev/svgjs" width="1000" height="1000" viewBox="0 0 1000 1000"><rect width="1000" height="1000" fill="#ffffff"></rect><g transform="matrix(0.7,0,0,0.7,149.65000000000003,149.65012604781526)"><svg viewBox="0 0 280 280" data-background-color="#046380" preserveAspectRatio="xMidYMid meet" height="1000" width="1000" xmlns="http://www.w3.org/2000/svg" xmlns:xlink="http://www.w3.org/1999/xlink"><g id="tight-bounds" transform="matrix(1,0,0,1,0.13999999999998636,0.1400504191260552)"><svg viewBox="0 0 279.72 279.72" height="279.72" width="279.72"><g><svg viewBox="0 0 279.72 279.72" height="279.72" width="279.72"><g><svg viewBox="0 0 279.72 279.72" height="279.72" width="279.72"><g id="textblocktransform"><svg viewBox="0 0 279.72 279.72" height="279.72" width="279.72" id="textblock"><g><svg viewBox="0 0 279.72 279.72" height="279.72" width="279.72"><g transform="matrix(1,0,0,1,57.446704652707865,57.446704652707865)"><svg viewBox="0 0 164.8265906945843 164.8265906945843" height="164.8265906945843" width="164.8265906945843"><g><circle r="82" cx="82.41329534729215" cy="82.41329534729215" fill="#000000" data-fill-palette-color="accent"></circle><svg xmlns="http://www.w3.org/2000/svg" xmlns:xlink="http://www.w3.org/1999/xlink" version="1.1" x="24.72398860418764" y="24.723988604187646" viewBox="7.435953617095947 2.2786660194396973 75.1270980834961 85.44355773925781" enable-background="new 0 0 90 90" xml:space="preserve" height="115.378613486209" width="115.378613486209" class="icon-o-0" data-fill-palette-color="quaternary" id="o-0"><path fill="#ffffff" d="M71.942 44.941l9.281-16.15c0 0 4.206-7.133-2.285-7.061H58.514L49.021 5.324c0 0-3.989-6.852-8.129 0L31.463 21.73H12.716c0 0-8.325-0.291-4.067 7.061l9.409 16.264-9.282 16.15c0 0-4.206 7.133 2.285 7.061h20.424l9.493 16.41c0 0 3.988 6.854 8.128 0l9.431-16.41h18.747c0 0 8.323 0.291 4.067-7.061L71.942 44.941zM71.15 26.869c5.003-0.056 1.76 5.441 1.76 5.441l-4.124 7.177-7.3-12.618H71.15zM65.645 44.955L55.201 63.129H34.816L24.355 45.043l10.444-18.174h20.383L65.645 44.955zM41.835 14.625c3.189-5.278 6.264 0 6.264 0l4.11 7.106H37.752L41.835 14.625zM16.99 32.31c-3.284-5.665 3.129-5.441 3.129-5.441h8.391l-7.31 12.72L16.99 32.31zM18.849 63.129c-5.003 0.057-1.76-5.441-1.76-5.441l4.125-7.178 7.301 12.619H18.849zM48.164 75.377c-3.189 5.277-6.265 0-6.265 0l-4.113-7.111H52.25L48.164 75.377zM69.88 63.129h-8.391L68.8 50.408l4.21 7.279C76.294 63.354 69.88 63.129 69.88 63.129z" data-fill-palette-color="quaternary"></path></svg></g></svg></g><path d="M12.887 187.834c-0.428-1.323-0.637-2.67-0.627-4.042 0.012-1.366 0.232-2.508 0.658-3.426v0l2.267 0.299c-0.386 0.869-0.598 1.889-0.638 3.058-0.038 1.176 0.121 2.315 0.478 3.419v0c0.473 1.464 1.077 2.474 1.81 3.032 0.729 0.566 1.504 0.716 2.326 0.45v0c0.604-0.195 1.03-0.553 1.281-1.074 0.252-0.514 0.384-1.092 0.396-1.734 0.017-0.651-0.02-1.543-0.11-2.677v0c-0.109-1.433-0.138-2.608-0.087-3.526 0.057-0.919 0.323-1.775 0.798-2.566 0.481-0.794 1.283-1.372 2.406-1.736v0c0.937-0.303 1.865-0.33 2.783-0.081 0.918 0.249 1.764 0.805 2.539 1.669 0.782 0.861 1.415 2.039 1.899 3.535v0c0.336 1.04 0.533 2.108 0.589 3.203 0.056 1.095-0.05 2.083-0.318 2.964v0l-2.281-0.177c0.23-0.89 0.331-1.795 0.303-2.715-0.028-0.92-0.172-1.781-0.431-2.584v0c-0.463-1.432-1.07-2.42-1.821-2.964-0.757-0.542-1.546-0.681-2.368-0.415v0c-0.604 0.195-1.029 0.556-1.277 1.083-0.248 0.527-0.379 1.119-0.394 1.776-0.019 0.666 0.019 1.551 0.114 2.655v0c0.115 1.431 0.142 2.599 0.081 3.506-0.059 0.913-0.323 1.764-0.792 2.553-0.468 0.79-1.254 1.363-2.358 1.721v0c-0.925 0.299-1.85 0.322-2.776 0.067-0.928-0.26-1.782-0.828-2.562-1.703-0.775-0.884-1.405-2.074-1.888-3.57zM20.947 206.618c-0.835-1.672-1.219-3.363-1.151-5.071 0.058-1.711 0.545-3.274 1.46-4.689 0.912-1.406 2.168-2.508 3.769-3.307v0c1.594-0.796 3.227-1.136 4.898-1.02 1.681 0.119 3.223 0.669 4.626 1.651 1.406 0.973 2.526 2.295 3.361 3.967v0c0.829 1.66 1.21 3.344 1.142 5.053-0.058 1.711-0.542 3.265-1.451 4.661-0.912 1.406-2.171 2.51-3.777 3.312v0c-1.612 0.805-3.251 1.148-4.917 1.029-1.669-0.11-3.205-0.655-4.607-1.637-1.406-0.973-2.523-2.289-3.353-3.949zM23.058 205.564c0.609 1.22 1.431 2.178 2.465 2.876 1.038 0.689 2.183 1.071 3.435 1.148 1.252 0.076 2.479-0.186 3.681-0.786v0c1.195-0.597 2.139-1.419 2.831-2.465 0.692-1.047 1.074-2.192 1.147-3.436 0.064-1.246-0.208-2.479-0.817-3.698v0c-0.606-1.214-1.431-2.178-2.475-2.894-1.047-0.707-2.196-1.098-3.449-1.175-1.252-0.076-2.476 0.184-3.671 0.781v0c-1.201 0.6-2.148 1.423-2.84 2.47-0.692 1.047-1.07 2.201-1.134 3.462-0.055 1.264 0.22 2.503 0.827 3.717zM46.186 216.31c-0.972-1.387-2.019-2.211-3.141-2.471-1.112-0.259-2.271 0.034-3.476 0.878v0l-1.732 1.214 4.862 6.938-1.865 1.307-4.862-6.938-6.134 4.299-1.522-2.172 9.756-6.837c1.752-1.228 3.51-1.636 5.273-1.224 1.764 0.412 3.341 1.61 4.731 3.594v0c0.604 0.862 1.075 1.739 1.412 2.632 0.328 0.891 0.495 1.742 0.503 2.552v0l-2.298 0.548c-0.002-1.449-0.504-2.889-1.507-4.32zM59.811 231.341l-2.169 0.745c-0.476-2.018-1.338-3.842-2.587-5.473v0l-11.986 11.145-1.785-1.92 11.986-11.145c-1.549-1.379-3.313-2.379-5.291-3v0l0.907-2.101c2.641 0.769 4.97 2.239 6.988 4.408v0c2.045 2.199 3.357 4.646 3.937 7.341zM80.488 244.717l2.099 1.62-6.807 8.824c-1.533 1.988-3.184 3.105-4.952 3.352-1.766 0.257-3.566-0.322-5.398-1.736v0c-1.074-0.829-1.871-1.75-2.392-2.766-0.521-1.015-0.74-2.024-0.657-3.025v0c-0.964 0.322-1.993 0.368-3.085 0.138-1.093-0.23-2.184-0.765-3.275-1.606v0c-1.833-1.414-2.846-3.006-3.04-4.775-0.199-1.764 0.469-3.64 2.002-5.627v0l6.807-8.824 2.1 1.62-6.758 8.76c-2.168 2.81-2.058 5.137 0.33 6.979v0c1.159 0.894 2.323 1.247 3.492 1.058 1.174-0.185 2.318-0.999 3.431-2.442v0l6.758-8.759 2.092 1.614-6.758 8.759c-1.113 1.443-1.615 2.751-1.508 3.926 0.108 1.174 0.742 2.209 1.902 3.103v0c2.404 1.855 4.691 1.377 6.858-1.433v0zM92.573 250.537c2.223 1.076 3.666 2.572 4.327 4.489 0.662 1.917 0.408 4.084-0.762 6.502v0l-4.533 9.366-2.387-1.155 2.227-4.601-9.631-4.66-2.227 4.601-2.332-1.129 4.532-9.366c1.17-2.418 2.712-3.962 4.626-4.633 1.914-0.671 3.967-0.476 6.16 0.586zM82.815 258.409l9.631 4.66 1.41-2.915c0.82-1.695 1.017-3.185 0.59-4.472-0.427-1.286-1.394-2.294-2.901-3.022v0c-1.513-0.732-2.906-0.866-4.179-0.403-1.274 0.463-2.321 1.542-3.14 3.237v0zM112.517 277.153l-2.767-0.816-2.226-6.588c-0.482-0.107-0.859-0.201-1.13-0.281v0l-4.398-1.297-1.596 5.408-2.534-0.748 5.244-17.776 6.932 2.045c2.304 0.68 3.954 1.764 4.95 3.254 0.996 1.49 1.209 3.199 0.64 5.128v0c-0.405 1.372-1.089 2.44-2.053 3.204-0.964 0.764-2.136 1.182-3.515 1.253v0zM106.952 267.29c1.605 0.474 2.935 0.486 3.989 0.037 1.052-0.442 1.768-1.308 2.148-2.596v0c0.38-1.288 0.247-2.4-0.399-3.336-0.647-0.93-1.774-1.631-3.378-2.105v0l-4.321-1.274-2.36 8zM130.835 275.581l0.603 2.166c-0.873 0.555-1.974 0.936-3.303 1.143-1.328 0.2-2.744 0.197-4.249-0.009v0c-1.678-0.229-3.072-0.648-4.18-1.256-1.116-0.602-1.918-1.338-2.405-2.209-0.487-0.87-0.66-1.82-0.52-2.85v0c0.144-1.05 0.572-1.914 1.284-2.593 0.706-0.68 1.563-1.118 2.571-1.314v0c-0.72-0.459-1.253-1.074-1.598-1.843-0.338-0.768-0.443-1.614-0.317-2.536v0c0.132-0.963 0.524-1.791 1.178-2.485 0.66-0.693 1.58-1.197 2.761-1.512 1.18-0.309 2.575-0.353 4.186-0.133v0c1.137 0.155 2.226 0.43 3.269 0.825 1.044 0.388 1.929 0.863 2.655 1.426v0l-1.05 2.002c-1.463-1.058-3.153-1.718-5.072-1.981v0c-1.591-0.218-2.847-0.1-3.767 0.353-0.92 0.453-1.442 1.134-1.567 2.044v0c-0.124 0.909 0.104 1.652 0.686 2.229 0.581 0.583 1.476 0.958 2.687 1.123v0l4.713 0.645-0.307 2.246-4.824-0.66c-1.384-0.189-2.501-0.09-3.351 0.298-0.856 0.38-1.35 1.058-1.483 2.035v0c-0.137 1.003 0.201 1.843 1.014 2.519 0.819 0.684 2.111 1.147 3.876 1.388v0c1.224 0.167 2.414 0.156 3.57-0.033 1.156-0.189 2.136-0.532 2.94-1.028zM142.95 279.72l-1.182-18.496 7.788-0.498c1.96-0.125 3.722 0.151 5.287 0.829 1.565 0.678 2.809 1.69 3.734 3.037 0.925 1.347 1.445 2.927 1.56 4.739v0c0.116 1.818-0.199 3.454-0.944 4.909-0.746 1.454-1.851 2.617-3.317 3.488-1.466 0.871-3.178 1.37-5.138 1.494v0zM145.439 277.248l5-0.319c1.495-0.096 2.793-0.469 3.895-1.121 1.094-0.651 1.918-1.522 2.47-2.613 0.546-1.083 0.775-2.315 0.687-3.695v0c-0.088-1.374-0.471-2.563-1.151-3.568-0.687-1.011-1.614-1.77-2.783-2.276-1.175-0.506-2.51-0.712-4.005-0.617v0l-5 0.32zM177.456 270.596l1.329 1.813c-0.62 0.828-1.516 1.573-2.686 2.236-1.172 0.656-2.498 1.154-3.978 1.493v0c-1.651 0.378-3.103 0.479-4.354 0.302-1.257-0.169-2.267-0.574-3.031-1.216-0.763-0.642-1.261-1.47-1.493-2.483v0c-0.237-1.033-0.142-1.993 0.285-2.879 0.42-0.886 1.067-1.598 1.94-2.137v0c-0.836-0.175-1.551-0.562-2.145-1.16-0.587-0.599-0.985-1.353-1.193-2.26v0c-0.217-0.947-0.143-1.861 0.224-2.741 0.373-0.882 1.055-1.678 2.048-2.391 0.994-0.706 2.284-1.24 3.869-1.603v0c1.118-0.256 2.235-0.384 3.35-0.383 1.113-0.006 2.109 0.126 2.988 0.395v0l-0.275 2.244c-1.742-0.473-3.557-0.493-5.445-0.061v0c-1.565 0.359-2.699 0.913-3.4 1.662-0.701 0.749-0.949 1.571-0.743 2.465v0c0.205 0.895 0.682 1.509 1.43 1.843 0.75 0.341 1.72 0.374 2.91 0.101v0l4.637-1.062 0.506 2.21-4.745 1.087c-1.362 0.312-2.371 0.8-3.03 1.463-0.666 0.658-0.889 1.467-0.669 2.428v0c0.226 0.987 0.839 1.653 1.839 1.998 1.008 0.351 2.38 0.327 4.117-0.071v0c1.204-0.276 2.313-0.707 3.328-1.293 1.015-0.586 1.811-1.253 2.387-2zM188.98 250.584l2.468-0.968-0.8 20.222-2.44 0.957-14.362-14.275 2.666-1.046 11.769 11.737zM210.283 255.7l1.776 1.381c-0.37 0.966-1.027 1.928-1.972 2.885-0.947 0.952-2.086 1.794-3.417 2.526v0c-1.484 0.816-2.853 1.31-4.105 1.483-1.255 0.182-2.338 0.069-3.248-0.34-0.91-0.408-1.615-1.068-2.116-1.979v0c-0.51-0.928-0.682-1.878-0.514-2.847 0.162-0.967 0.589-1.829 1.281-2.587v0c-0.852 0.06-1.646-0.115-2.381-0.528-0.729-0.416-1.318-1.031-1.767-1.847v0c-0.468-0.852-0.647-1.751-0.535-2.698 0.117-0.95 0.555-1.903 1.315-2.86 0.763-0.951 1.857-1.818 3.283-2.601v0c1.005-0.553 2.044-0.981 3.116-1.286 1.069-0.311 2.063-0.457 2.982-0.438v0l0.35 2.233c-1.805 0.022-3.556 0.5-5.253 1.433v0c-1.407 0.774-2.345 1.617-2.815 2.529-0.469 0.912-0.482 1.77-0.04 2.574v0c0.442 0.804 1.069 1.265 1.88 1.381 0.814 0.122 1.756-0.111 2.827-0.699v0l4.169-2.292 1.092 1.987-4.267 2.346c-1.224 0.673-2.062 1.418-2.513 2.236-0.46 0.815-0.453 1.655 0.022 2.518v0c0.488 0.887 1.26 1.36 2.315 1.418 1.065 0.061 2.379-0.337 3.94-1.196v0c1.082-0.595 2.031-1.313 2.847-2.154 0.816-0.841 1.398-1.701 1.748-2.578zM216.329 256.348l-10.862-15.017 2.14-1.548 9.51 13.146 8.136-5.885 1.353 1.87zM235.343 240.522c-1.336 1.308-2.827 2.191-4.474 2.651-1.647 0.469-3.283 0.485-4.911 0.047-1.618-0.437-3.052-1.295-4.303-2.572v0c-1.246-1.273-2.071-2.723-2.473-4.35-0.402-1.636-0.352-3.273 0.153-4.909 0.495-1.636 1.41-3.108 2.746-4.416v0c1.326-1.298 2.812-2.177 4.458-2.636 1.647-0.469 3.274-0.485 4.883-0.048 1.618 0.437 3.054 1.297 4.31 2.58v0c1.26 1.288 2.089 2.742 2.487 4.364 0.407 1.622 0.359 3.251-0.145 4.887-0.495 1.636-1.405 3.103-2.731 4.402zM233.693 238.836c0.974-0.954 1.635-2.03 1.981-3.228 0.337-1.199 0.35-2.406 0.039-3.622-0.312-1.215-0.937-2.303-1.876-3.262v0c-0.935-0.955-2.006-1.601-3.215-1.938-1.208-0.337-2.416-0.35-3.622-0.039-1.206 0.321-2.296 0.958-3.27 1.912v0c-0.969 0.949-1.635 2.03-1.996 3.243-0.352 1.213-0.372 2.427-0.06 3.642 0.312 1.215 0.935 2.3 1.869 3.256v0c0.939 0.96 2.013 1.608 3.222 1.945 1.208 0.337 2.423 0.343 3.643 0.018 1.22-0.335 2.315-0.977 3.285-1.927zM234.78 212.548c1.435-1.927 3.023-3.1 4.766-3.519 1.742-0.419 3.42-0.028 5.033 1.173v0c1.613 1.201 2.468 2.696 2.566 4.486 0.098 1.789-0.57 3.647-2.005 5.574v0l-2.739 3.677 4.506 3.356-1.577 2.119-14.866-11.069zM243.249 218.954c0.999-1.342 1.476-2.582 1.43-3.717-0.046-1.136-0.607-2.105-1.684-2.908v0c-1.077-0.802-2.166-1.062-3.268-0.78-1.096 0.286-2.144 1.1-3.144 2.442v0l-2.69 3.613 6.665 4.963zM259.17 199.654l2.241 0.186c0.218 1.011 0.193 2.176-0.075 3.494-0.273 1.315-0.767 2.642-1.482 3.982v0c-0.797 1.494-1.673 2.656-2.628 3.485-0.952 0.838-1.921 1.335-2.906 1.49-0.985 0.155-1.936-0.012-2.853-0.501v0c-0.935-0.499-1.597-1.2-1.987-2.104-0.393-0.898-0.506-1.853-0.341-2.867v0c-0.681 0.516-1.442 0.803-2.282 0.859-0.838 0.05-1.667-0.144-2.489-0.582v0c-0.857-0.457-1.498-1.113-1.922-1.967-0.421-0.859-0.575-1.898-0.461-3.114 0.12-1.213 0.562-2.538 1.328-3.972v0c0.54-1.012 1.176-1.939 1.908-2.78 0.726-0.844 1.479-1.509 2.258-1.996v0l1.513 1.679c-1.5 1.005-2.706 2.361-3.617 4.071v0c-0.756 1.417-1.081 2.636-0.976 3.655 0.106 1.02 0.564 1.746 1.374 2.179v0c0.81 0.432 1.586 0.475 2.328 0.129 0.749-0.342 1.411-1.052 1.986-2.13v0l2.24-4.197 2 1.067-2.292 4.296c-0.658 1.232-0.952 2.314-0.883 3.246 0.06 0.934 0.524 1.634 1.393 2.097v0c0.893 0.477 1.798 0.451 2.715-0.077 0.926-0.531 1.808-1.582 2.647-3.154v0c0.581-1.089 0.984-2.209 1.207-3.36 0.224-1.15 0.242-2.188 0.056-3.114zM269.912 182.499l-1.006 2.704-6.726 1.763c-0.14 0.473-0.26 0.843-0.358 1.109v0l-1.599 4.298 5.284 1.966-0.922 2.476-17.37-6.464 2.521-6.773c0.838-2.252 2.034-3.822 3.589-4.713 1.555-0.89 3.275-0.985 5.16-0.283v0c1.341 0.499 2.359 1.256 3.054 2.271 0.695 1.015 1.031 2.212 1.007 3.593v0zM259.688 187.367c0.584-1.568 0.688-2.894 0.313-3.976-0.368-1.08-1.182-1.855-2.441-2.323v0c-1.259-0.468-2.377-0.413-3.356 0.166-0.972 0.581-1.75 1.656-2.334 3.225v0l-1.57 4.221 7.817 2.909z" fill="#000000" data-fill-palette-color="primary"></path><path d="M28.647 111.395L2.467 101.469 6.648 90.443C7.698 87.673 9.179 85.423 11.09 83.694 12.999 81.971 15.169 80.892 17.6 80.457 20.031 80.022 22.531 80.291 25.099 81.265V81.265C27.667 82.239 29.717 83.694 31.248 85.632 32.78 87.569 33.689 89.816 33.976 92.371 34.261 94.933 33.878 97.598 32.828 100.368V100.368ZM26.809 106.422L29.489 99.352C30.291 97.238 30.586 95.221 30.376 93.301 30.166 91.381 29.481 89.703 28.322 88.268 27.172 86.829 25.625 85.741 23.682 85.004V85.004C21.738 84.267 19.859 84.056 18.043 84.371 16.23 84.679 14.609 85.483 13.178 86.781 11.742 88.076 10.623 89.781 9.821 91.895V91.895L7.141 98.965ZM30.049 50.55C32.384 47.63 35.074 46.006 38.119 45.676 41.165 45.347 44.269 46.446 47.431 48.974V48.974L59.709 58.791 57.206 61.922 51.174 57.099 41.085 69.716 47.117 74.54 44.671 77.599 32.393 67.782C29.231 65.254 27.475 62.468 27.127 59.424 26.778 56.381 27.752 53.423 30.049 50.55ZM38.373 67.548L48.462 54.931 44.651 51.884C42.422 50.101 40.291 49.309 38.258 49.506 36.22 49.7 34.409 50.787 32.824 52.769V52.769C31.244 54.746 30.583 56.749 30.843 58.78 31.094 60.812 32.333 62.719 34.563 64.501V64.501ZM71.472 17.095L74.839 14.939 79.595 45.139 76.262 47.273 50.791 30.336 54.431 28.005 75.314 41.943ZM102.586 7.669L97.483 9.451 104.418 29.309 109.521 27.527 110.669 30.815 96.697 35.694 95.549 32.406 100.643 30.628 93.708 10.77 88.614 12.548 87.466 9.261 101.438 4.382ZM121.888 28.93L119.624 1.024 131.377 0.07C134.33-0.169 136.997 0.203 139.379 1.188 141.754 2.173 143.66 3.671 145.096 5.68 146.532 7.689 147.361 10.063 147.583 12.8V12.8C147.805 15.538 147.369 18.014 146.276 20.228 145.183 22.443 143.544 24.228 141.359 25.583 139.167 26.939 136.595 27.737 133.642 27.977V27.977ZM125.592 25.136L133.128 24.525C135.381 24.342 137.33 23.744 138.974 22.73 140.619 21.717 141.84 20.379 142.64 18.716 143.446 17.059 143.766 15.195 143.598 13.124V13.124C143.429 11.052 142.814 9.264 141.751 7.759 140.694 6.254 139.273 5.134 137.487 4.398 135.7 3.656 133.68 3.377 131.427 3.56V3.56L123.89 4.171ZM197.838 41.518L193.79 39.92 191.325 29.707C190.617 29.479 190.062 29.285 189.661 29.127V29.127L183.23 26.588 180.1 34.515 176.381 33.047 186.664 7.005 196.813 11.012C200.19 12.346 202.526 14.2 203.823 16.577 205.119 18.953 205.209 21.554 204.094 24.378V24.378C203.301 26.387 202.129 27.904 200.577 28.931 199.028 29.952 197.209 30.424 195.121 30.347V30.347ZM190.802 25.932C193.156 26.861 195.152 27.061 196.79 26.533 198.434 26.007 199.629 24.799 200.375 22.91V22.91C201.119 21.027 201.067 19.338 200.221 17.843 199.381 16.35 197.784 15.14 195.431 14.21V14.21L189.104 11.712 184.476 23.434ZM231.639 35.786L227.29 32.577 214.801 49.502 219.15 52.712 217.083 55.513 205.175 46.727 207.242 43.925 211.584 47.128 224.072 30.203 219.731 27 221.798 24.198 233.706 32.985ZM232.323 73.62C230.57 71.41 229.476 69.031 229.04 66.483 228.605 63.935 228.841 61.474 229.749 59.1 230.662 56.732 232.173 54.711 234.282 53.039V53.039C236.392 51.366 238.704 50.355 241.218 50.007 243.736 49.664 246.184 49.997 248.56 51.006 250.942 52.011 253.009 53.619 254.761 55.829V55.829C256.501 58.024 257.589 60.395 258.025 62.943 258.466 65.487 258.231 67.934 257.321 70.283 256.415 72.638 254.896 74.66 252.765 76.349V76.349C250.634 78.039 248.319 79.056 245.82 79.402 243.325 79.752 240.887 79.425 238.505 78.42 236.124 77.415 234.063 75.815 232.323 73.62ZM235.115 71.407C236.393 73.02 237.905 74.176 239.649 74.877 241.403 75.58 243.218 75.794 245.094 75.521 246.966 75.242 248.695 74.474 250.281 73.216V73.216C251.868 71.959 253.01 70.45 253.708 68.691 254.401 66.927 254.604 65.113 254.315 63.249 254.035 61.387 253.256 59.649 251.977 58.037V58.037C250.703 56.429 249.18 55.264 247.409 54.541 245.644 53.813 243.826 53.589 241.954 53.867 240.082 54.146 238.353 54.914 236.767 56.172V56.172C235.18 57.429 234.038 58.938 233.34 60.697 232.642 62.456 232.444 64.28 232.744 66.169 233.05 68.053 233.84 69.799 235.115 71.407ZM249.06 102.912C248.289 100.953 247.848 98.94 247.738 96.873 247.63 94.812 247.855 93.071 248.412 91.648V91.648L251.854 91.881C251.353 93.224 251.128 94.781 251.179 96.552 251.231 98.323 251.579 100.028 252.224 101.667V101.667C253.075 103.827 254.076 105.293 255.228 106.065 256.377 106.846 257.56 106.996 258.778 106.517V106.517C259.67 106.166 260.28 105.588 260.609 104.784 260.941 103.987 261.085 103.1 261.041 102.123 261.007 101.151 260.867 99.81 260.622 98.1V98.1C260.322 95.956 260.17 94.188 260.166 92.797 260.165 91.413 260.485 90.097 261.126 88.851 261.77 87.612 262.923 86.665 264.587 86.01V86.01C265.975 85.464 267.372 85.338 268.779 85.633 270.184 85.921 271.515 86.677 272.772 87.901 274.024 89.127 275.084 90.845 275.954 93.056V93.056C276.56 94.594 276.957 96.185 277.148 97.829 277.338 99.473 277.269 100.976 276.942 102.337V102.337L273.484 102.284C273.751 100.917 273.819 99.542 273.687 98.158 273.558 96.78 273.259 95.494 272.789 94.301V94.301C271.959 92.191 270.953 90.76 269.772 90.006 268.584 89.256 267.385 89.119 266.173 89.596V89.596C265.281 89.947 264.673 90.53 264.349 91.347 264.025 92.163 263.879 93.073 263.911 94.075 263.949 95.076 264.094 96.4 264.344 98.05V98.05C264.647 100.2 264.796 101.962 264.792 103.334 264.791 104.712 264.471 106.02 263.834 107.257 263.203 108.492 262.072 109.43 260.439 110.073V110.073C259.07 110.612 257.678 110.732 256.262 110.433 254.838 110.131 253.498 109.353 252.243 108.099 250.988 106.845 249.927 105.116 249.06 102.912Z" fill="#000000" data-fill-palette-color="primary"></path><path d="M9.836 144.697c0-1.792 1.453-3.245 3.244-3.245 1.792 0 3.245 1.453 3.245 3.245 0 1.792-1.453 3.245-3.245 3.244-1.792 0-3.245-1.453-3.244-3.244zM264.665 144.697c0-1.792 1.453-3.245 3.244-3.245 1.792 0 3.245 1.453 3.245 3.245 0 1.792-1.453 3.245-3.245 3.244-1.792 0-3.245-1.453-3.244-3.244z" fill="#000000" data-fill-palette-color="primary"></path></svg></g></svg></g></svg></g></svg></g><defs></defs></svg><rect width="279.72" height="279.72" fill="none" stroke="none" visibility="hidden"></rect></g></svg></g></svg>